<svg xmlns="http://www.w3.org/2000/svg" width="239" height="54" viewBox="0 0 239 54"><defs><style>.a{fill:#fff;}.b,.c{stroke:none;}.c{fill:#707070;}</style></defs><g transform="translate(-913 -288)"><g class="a" transform="translate(913 288)"><path class="b" d="M 238.5 53.5 L 0.5 53.5 L 0.5 0.5 L 238.5 0.5 L 238.5 53.5 Z"/><path class="c" d="M 1 1 L 1 53 L 238 53 L 238 1 L 1 1 M 0 0 L 239 0 L 239 54 L 0 54 L 0 0 Z"/></g><path d="M18.232,1.252l-4.591,9.309-10.273,1.5A2.251,2.251,0,0,0,2.123,15.9L9.555,23.14,7.8,33.37a2.249,2.249,0,0,0,3.262,2.37l9.19-4.83,9.19,4.83A2.25,2.25,0,0,0,32.7,33.37L30.945,23.14,38.377,15.9a2.251,2.251,0,0,0-1.245-3.839l-10.273-1.5L22.268,1.252a2.252,2.252,0,0,0-4.036,0Z" transform="translate(921.22 296.999)"/><path d="M18.232,1.252l-4.591,9.309-10.273,1.5A2.251,2.251,0,0,0,2.123,15.9L9.555,23.14,7.8,33.37a2.249,2.249,0,0,0,3.262,2.37l9.19-4.83,9.19,4.83A2.25,2.25,0,0,0,32.7,33.37L30.945,23.14,38.377,15.9a2.251,2.251,0,0,0-1.245-3.839l-10.273-1.5L22.268,1.252a2.252,2.252,0,0,0-4.036,0Z" transform="translate(966.22 296.999)"/><path d="M18.232,1.252l-4.591,9.309-10.273,1.5A2.251,2.251,0,0,0,2.123,15.9L9.555,23.14,7.8,33.37a2.249,2.249,0,0,0,3.262,2.37l9.19-4.83,9.19,4.83A2.25,2.25,0,0,0,32.7,33.37L30.945,23.14,38.377,15.9a2.251,2.251,0,0,0-1.245-3.839l-10.273-1.5L22.268,1.252a2.252,2.252,0,0,0-4.036,0Z" transform="translate(1011.22 296.999)"/><path d="M18.232,1.252l-4.591,9.309-10.273,1.5A2.251,2.251,0,0,0,2.123,15.9L9.555,23.14,7.8,33.37a2.249,2.249,0,0,0,3.262,2.37l9.19-4.83,9.19,4.83A2.25,2.25,0,0,0,32.7,33.37L30.945,23.14,38.377,15.9a2.251,2.251,0,0,0-1.245-3.839l-10.273-1.5L22.268,1.252a2.252,2.252,0,0,0-4.036,0Z" transform="translate(1056.22 296.999)"/><path d="M18.232,1.252l-4.591,9.309-10.273,1.5A2.251,2.251,0,0,0,2.123,15.9L9.555,23.14,7.8,33.37a2.249,2.249,0,0,0,3.262,2.37l9.19-4.83,9.19,4.83A2.25,2.25,0,0,0,32.7,33.37L30.945,23.14,38.377,15.9a2.251,2.251,0,0,0-1.245-3.839l-10.273-1.5L22.268,1.252a2.252,2.252,0,0,0-4.036,0Z" transform="translate(1101.22 296.999)"/></g></svg>